<?xml version="1.0" encoding="utf-8" standalone="no"?>
<!DOCTYPE svg PUBLIC "-//W3C//DTD SVG 1.1//EN" "http://www.w3.org/Graphics/SVG/1.1/DTD/svg11.dtd">
<svg xmlns="http://www.w3.org/2000/svg" xmlns:xl="http://www.w3.org/1999/xlink" version="1.1" viewBox="425 623 266 302" width="266pt" height="302pt" xmlns:dc="http://purl.org/dc/elements/1.1/"><metadata> Produced by OmniGraffle 6.0.2 <dc:date>2013-12-06 15:43Z</dc:date></metadata><defs/><g stroke="none" stroke-opacity="1" stroke-dasharray="none" fill="none" fill-opacity="1"><title>Canvas 1</title><g><title>Layer 1</title><rect x="513" y="630" width="72" height="72" stroke="#007fff" stroke-linecap="square" stroke-linejoin="miter" stroke-width="10.125"/><circle cx="468" cy="882" r="36.000058" stroke="#007fff" stroke-linecap="round" stroke-linejoin="round" stroke-width="10.125"/><path d="M 639 810 L 639 774 C 639 756 630 738 603 738 C 576 738 567 756 567 774 L 567 810 Z" stroke="#007fff" stroke-linecap="round" stroke-linejoin="miter" stroke-width="10.125"/><circle cx="558" cy="882" r="36.000058" stroke="#007fff" stroke-linecap="round" stroke-linejoin="round" stroke-width="10.125"/><circle cx="648" cy="882" r="36.000058" stroke="#007fff" stroke-linecap="round" stroke-linejoin="round" stroke-width="10.125"/><path d="M 567 707.0625 L 567 718.125 L 567 720 L 585 720 L 603 720 L 603 732.9375" stroke="#007fff" stroke-linecap="round" stroke-linejoin="miter" stroke-width="10.125"/><path d="M 531 707.0625 L 531 718.125 L 531 774 L 486 774 L 468 774 L 468 840.9375" stroke="#007fff" stroke-linecap="round" stroke-linejoin="miter" stroke-width="10.125"/><path d="M 603 828 L 580.5 828 L 558 828 L 558 840.9375" stroke="#007fff" stroke-linecap="round" stroke-linejoin="miter" stroke-width="10.125"/><path d="M 603 815.0625 L 603 828 L 625.5 828 L 648 828 L 648 840.9375" stroke="#007fff" stroke-linecap="round" stroke-linejoin="miter" stroke-width="10.125"/></g></g></svg>
