<?xml version="1.0" encoding="utf-8" standalone="no"?>
<!DOCTYPE svg PUBLIC "-//W3C//DTD SVG 1.1//EN" "http://www.w3.org/Graphics/SVG/1.1/DTD/svg11.dtd">
<svg xmlns="http://www.w3.org/2000/svg" xmlns:xl="http://www.w3.org/1999/xlink" version="1.1" viewBox="92 650 221 302" width="221pt" height="302pt" xmlns:dc="http://purl.org/dc/elements/1.1/"><metadata> Produced by OmniGraffle 6.0.2 <dc:date>2013-12-06 15:43Z</dc:date></metadata><defs/><g stroke="none" stroke-opacity="1" stroke-dasharray="none" fill="none" fill-opacity="1"><title>Canvas 1</title><g><title>Layer 1</title><rect x="144" y="657" width="72" height="72" stroke="#007fff" stroke-linecap="square" stroke-linejoin="miter" stroke-width="10.125"/><circle cx="135" cy="801" r="36.000058" stroke="#007fff" stroke-linecap="round" stroke-linejoin="round" stroke-width="10.125"/><path d="M 261 837 L 261 801 C 261 783 252 765 225 765 C 198 765 189 783 189 801 L 189 837 Z" stroke="#007fff" stroke-linecap="round" stroke-linejoin="miter" stroke-width="10.125"/><circle cx="180" cy="909" r="36.000058" stroke="#007fff" stroke-linecap="round" stroke-linejoin="round" stroke-width="10.125"/><circle cx="270" cy="909" r="36.000058" stroke="#007fff" stroke-linecap="round" stroke-linejoin="round" stroke-width="10.125"/><path d="M 180 747 L 202.5 747 L 225 747 L 225 759.9375" stroke="#007fff" stroke-linecap="round" stroke-linejoin="miter" stroke-width="10.125"/><path d="M 180 734.0625 L 180 747 L 157.5 747 L 135 747 L 135 759.9375" stroke="#007fff" stroke-linecap="round" stroke-linejoin="miter" stroke-width="10.125"/><path d="M 225 855 L 202.5 855 L 180 855 L 180 867.9375" stroke="#007fff" stroke-linecap="round" stroke-linejoin="miter" stroke-width="10.125"/><path d="M 225 842.0625 L 225 855 L 247.5 855 L 270 855 L 270 867.9375" stroke="#007fff" stroke-linecap="round" stroke-linejoin="miter" stroke-width="10.125"/></g></g></svg>
