<?xml version="1.0" encoding="utf-8" standalone="no"?>
<!DOCTYPE svg PUBLIC "-//W3C//DTD SVG 1.1//EN" "http://www.w3.org/Graphics/SVG/1.1/DTD/svg11.dtd">
<svg xmlns="http://www.w3.org/2000/svg" xmlns:xl="http://www.w3.org/1999/xlink" version="1.1" viewBox="614 182 266 302" width="266pt" height="302pt" xmlns:dc="http://purl.org/dc/elements/1.1/"><metadata> Produced by OmniGraffle 6.0.2 <dc:date>2013-12-06 15:41Z</dc:date></metadata><defs/><g stroke="none" stroke-opacity="1" stroke-dasharray="none" fill="none" fill-opacity="1"><title>Canvas 1</title><g><title>Layer 1</title><rect x="702" y="189" width="72" height="72" stroke="black" stroke-linecap="square" stroke-linejoin="miter" stroke-width="10.125"/><circle cx="657" cy="441" r="36.000058" stroke="black" stroke-linecap="round" stroke-linejoin="round" stroke-width="10.125"/><path d="M 828 369 L 828 333 C 828 315 819 297 792 297 C 765 297 756 315 756 333 L 756 369 Z" stroke="black" stroke-linecap="round" stroke-linejoin="miter" stroke-width="10.125"/><circle cx="747" cy="441" r="36.000058" stroke="black" stroke-linecap="round" stroke-linejoin="round" stroke-width="10.125"/><circle cx="837" cy="441" r="36.000058" stroke="black" stroke-linecap="round" stroke-linejoin="round" stroke-width="10.125"/><path d="M 756 266.0625 L 756 277.125 L 756 279 L 774 279 L 792 279 L 792 291.9375" stroke="black" stroke-linecap="round" stroke-linejoin="miter" stroke-width="10.125"/><path d="M 720 266.0625 L 720 277.125 L 720 333 L 675 333 L 657 333 L 657 399.93748" stroke="black" stroke-linecap="round" stroke-linejoin="miter" stroke-width="10.125"/><path d="M 792 374.0625 L 792 387 L 769.5 387 L 747 387 L 747 399.93748" stroke="black" stroke-linecap="round" stroke-linejoin="miter" stroke-width="10.125"/><path d="M 792 374.0625 L 792 387 L 814.5 387 L 837 387 L 837 399.93748" stroke="black" stroke-linecap="round" stroke-linejoin="miter" stroke-width="10.125"/></g></g></svg>
