<?xml version="1.0" encoding="utf-8" standalone="no"?>
<!DOCTYPE svg PUBLIC "-//W3C//DTD SVG 1.1//EN" "http://www.w3.org/Graphics/SVG/1.1/DTD/svg11.dtd">
<svg xmlns="http://www.w3.org/2000/svg" xmlns:xl="http://www.w3.org/1999/xlink" version="1.1" viewBox="281 209 221 302" width="221pt" height="302pt" xmlns:dc="http://purl.org/dc/elements/1.1/"><metadata> Produced by OmniGraffle 6.0.2 <dc:date>2013-12-06 15:36Z</dc:date></metadata><defs/><g stroke="none" stroke-opacity="1" stroke-dasharray="none" fill="none" fill-opacity="1"><title>Canvas 1</title><g><title>Layer 1</title><rect x="333" y="216" width="72" height="72" stroke="black" stroke-linecap="square" stroke-linejoin="miter" stroke-width="10.125"/><circle cx="324" cy="360" r="36.000058" stroke="black" stroke-linecap="round" stroke-linejoin="round" stroke-width="10.125"/><path d="M 450 396 L 450 360 C 450 342 441 324 414 324 C 387 324 378 342 378 360 L 378 396 Z" stroke="black" stroke-linecap="round" stroke-linejoin="miter" stroke-width="10.125"/><circle cx="369" cy="468" r="36.000058" stroke="black" stroke-linecap="round" stroke-linejoin="round" stroke-width="10.125"/><circle cx="459" cy="468" r="36.000058" stroke="black" stroke-linecap="round" stroke-linejoin="round" stroke-width="10.125"/><path d="M 369 293.0625 L 369 306 L 391.5 306 L 414 306 L 414 318.9375" stroke="black" stroke-linecap="round" stroke-linejoin="miter" stroke-width="10.125"/><path d="M 369 293.0625 L 369 306 L 346.5 306 L 324 306 L 324 318.93748" stroke="black" stroke-linecap="round" stroke-linejoin="miter" stroke-width="10.125"/><path d="M 414 401.0625 L 414 414 L 391.5 414 L 369 414 L 369 426.93748" stroke="black" stroke-linecap="round" stroke-linejoin="miter" stroke-width="10.125"/><path d="M 414 401.0625 L 414 414 L 436.5 414 L 459 414 L 459 426.93748" stroke="black" stroke-linecap="round" stroke-linejoin="miter" stroke-width="10.125"/></g></g></svg>
